<svg xmlns="http://www.w3.org/2000/svg" width="1024" height="698" viewBox="-0.456 -0.456 23.649 16.125"><path d="M15.008 15.213a7.763 7.763 0 01-5.777-2.554 5.833 5.833 0 01-3.331 1.04c-3.259 0-5.9-2.669-5.9-5.96 0-3.293 2.641-5.962 5.9-5.962 1.174 0 2.266.347 3.185.943A7.763 7.763 0 0115.007 0c4.27 0 7.73 3.405 7.73 7.606 0 4.202-3.46 7.607-7.73 7.607" fill="#0168b5"/><path d="M15.065.597A7.134 7.134 0 009.23 3.62a5.063 5.063 0 00-3.436-1.215C2.98 2.485.605 4.917.605 7.735c.001 2.825 2.386 5.25 5.2 5.335a5.048 5.048 0 003.541-1.308c1.325 1.8 3.49 2.871 5.72 2.856a7.211 7.211 0 004.968-2.05 6.986 6.986 0 002.096-4.96c0-1.86-.771-3.66-2.095-4.96a7.211 7.211 0 00-4.97-2.05m.026 13.615a6.705 6.705 0 01-5.673-3.133 4.656 4.656 0 01-3.613 1.57c-2.594-.077-4.786-2.312-4.786-4.913C1.018 5.138 3.2 2.898 5.795 2.825A4.657 4.657 0 019.32 4.302c1.179-2.03 3.426-3.316 5.771-3.299 3.542.024 6.64 3.035 6.64 6.605 0 3.568-3.1 6.582-6.64 6.605" fill="#fff"/><path d="M3.215 6.108c-.34 0-.633.12-.875.363a1.205 1.205 0 00-.365.879v1.758h.703V7.35c0-.149.053-.277.156-.383a.526.526 0 01.38-.158c.15 0 .275.053.382.158a.524.524 0 01.156.383v1.758h.709V7.35c0-.149.054-.277.16-.383A.515.515 0 015 6.81a.52.52 0 01.38.158c.107.106.16.234.16.383v1.758h.698V7.35a1.2 1.2 0 00-.365-.879A1.182 1.182 0 005 6.108c-.35 0-.648.127-.893.38a1.19 1.19 0 00-.892-.38zm4.906 0c-.412 0-.765.147-1.057.443a1.432 1.432 0 00-.443 1.057c0 .412.148.767.443 1.06.292.294.645.44 1.057.44a1.44 1.44 0 001.059-.44c.293-.293.441-.648.441-1.06 0-.413-.148-.766-.441-1.057a1.434 1.434 0 00-1.059-.443zm3.12 0c-.342 0-.632.12-.876.363a1.201 1.201 0 00-.361.879v1.758h.701V7.35c0-.149.053-.277.156-.383a.522.522 0 01.38-.158c.148 0 .276.053.382.158a.524.524 0 01.156.383v1.758h.71V7.35c0-.149.051-.277.157-.383a.52.52 0 01.381-.158c.149 0 .275.053.38.158.105.106.16.234.16.383v1.758h.699V7.35c0-.343-.122-.636-.366-.879a1.181 1.181 0 00-.873-.363 1.19 1.19 0 00-.892.38 1.197 1.197 0 00-.895-.38zm4.907 0c-.413 0-.766.147-1.058.443a1.43 1.43 0 00-.442 1.057c0 .412.147.767.442 1.06.292.294.645.44 1.058.44.413 0 .765-.146 1.059-.44.294-.293.44-.648.44-1.06 0-.413-.146-.766-.44-1.057a1.436 1.436 0 00-1.059-.443zm1.416 0l1.13 1.496-1.13 1.504h.881l.692-.912.69.912h.886L19.58 7.604l1.133-1.496h-.887l-.69.912-.69-.912h-.882zm-9.443.715c.215 0 .4.076.555.23a.76.76 0 01.23.555.76.76 0 01-.23.554.76.76 0 01-.555.23.764.764 0 01-.557-.23.764.764 0 01-.224-.554c0-.215.073-.4.224-.555a.764.764 0 01.557-.23zm8.027 0c.214 0 .399.076.555.23.153.155.229.34.229.555 0 .215-.076.4-.229.554a.764.764 0 01-.555.23.766.766 0 01-.556-.23.771.771 0 01-.227-.554c0-.215.077-.4.227-.555a.766.766 0 01.556-.23z" fill="#fff"/></svg>